<?xml version="1.0" standalone="no"?>
<!DOCTYPE svg PUBLIC "-//W3C//DTD SVG 20010904//EN"
 "http://www.w3.org/TR/2001/REC-SVG-20010904/DTD/svg10.dtd">
<svg version="1.0" xmlns="http://www.w3.org/2000/svg"
 width="1024.000000pt" height="1024.000000pt" viewBox="0 0 1024.000000 1024.000000"
 preserveAspectRatio="xMidYMid meet">

<g transform="translate(0.000000,1024.000000) scale(0.100000,-0.100000)"
fill="#000000" stroke="none">
<path d="M4890 9073 c-263 -25 -400 -51 -619 -113 -667 -192 -1243 -616 -1628
-1199 -358 -542 -520 -1136 -491 -1803 38 -901 489 -1731 1238 -2277 397 -289
886 -481 1367 -536 717 -81 1418 81 1988 460 178 119 279 200 433 350 413 400
685 864 827 1410 235 900 23 1881 -562 2605 -479 592 -1128 960 -1908 1079
-173 27 -497 39 -645 24z m510 -144 c483 -52 945 -221 1335 -486 148 -101 227
-166 369 -303 470 -454 777 -1091 844 -1752 5 -43 4 -78 0 -78 -13 0 -241 116
-372 190 -360 201 -579 368 -964 732 -149 142 -221 183 -317 182 -89 0 -160
-43 -351 -213 -51 -45 -95 -81 -99 -81 -31 0 -208 190 -356 381 -233 302 -413
504 -496 557 -133 85 -218 64 -423 -102 -100 -81 -421 -402 -551 -551 -146
-168 -229 -255 -244 -255 -6 0 -58 27 -115 60 -120 69 -190 89 -248 72 -97
-29 -262 -160 -624 -493 -144 -132 -284 -247 -420 -343 -38 -26 -68 -45 -68
-42 0 3 7 56 16 118 67 485 264 949 572 1345 94 120 292 325 412 425 315 264
733 474 1137 573 296 72 662 97 963 64z m-540 -996 c-30 -6 -52 -21 -205 -142
-152 -120 -328 -296 -527 -526 -213 -246 -323 -348 -464 -431 -48 -28 -262
-118 -248 -104 5 5 58 29 117 54 60 25 139 66 176 90 74 50 226 179 257 219
56 73 376 426 465 513 89 87 297 261 379 317 13 9 36 16 50 16 l25 -2 -25 -4z
m156 -115 c41 -43 131 -164 214 -289 79 -118 171 -250 204 -294 88 -117 292
-357 382 -453 44 -45 78 -82 76 -82 -1 0 -39 18 -83 41 -109 54 -301 182 -492
327 -87 66 -183 134 -215 151 -31 18 -46 29 -33 25 37 -10 120 -66 276 -184
197 -151 457 -320 491 -320 3 0 -32 42 -78 93 -215 236 -355 416 -527 676
-142 215 -200 290 -284 367 -34 32 -48 48 -31 36 16 -11 62 -54 100 -94z m124
-798 c110 -223 220 -379 392 -556 l99 -101 -73 14 c-266 49 -443 132 -746 350
-164 118 -275 183 -313 183 -74 0 -175 -64 -364 -229 -232 -204 -303 -248
-500 -310 -125 -41 -272 -72 -533 -116 -241 -40 -359 -52 -583 -60 -90 -3
-177 -8 -192 -10 -16 -3 -27 -1 -25 5 2 6 74 12 173 14 270 7 442 27 800 92
421 76 579 148 840 380 195 174 303 244 376 244 45 0 166 -68 316 -177 237
-174 404 -264 579 -314 81 -22 204 -48 204 -43 0 2 -21 23 -46 46 -76 70 -250
295 -324 418 -62 104 -107 194 -169 334 -27 63 -26 75 2 16 11 -25 51 -106 87
-180z m1264 170 c22 -17 86 -75 141 -129 343 -335 697 -601 1055 -790 l87 -46
-216 3 c-228 3 -287 12 -421 64 -185 72 -473 244 -725 434 -120 90 -315 259
-315 274 0 11 145 145 195 179 84 58 130 61 199 11z m-2831 -110 c26 -16 50
-37 53 -45 4 -9 -23 -47 -73 -102 -43 -49 -98 -114 -121 -145 -24 -32 -45 -58
-48 -58 -14 0 91 134 182 233 30 32 54 62 54 68 0 19 -93 69 -130 69 -60 0
-105 -35 -445 -348 -198 -181 -363 -316 -505 -414 -111 -77 -201 -131 -207
-125 -2 3 22 19 54 37 181 101 442 311 768 616 269 252 319 277 418 214z
m1890 -1077 c3 -5 -702 -8 -1566 -8 -865 0 -1578 -1 -1584 -3 -39 -12 23 -434
103 -705 87 -293 212 -545 410 -828 l54 -77 129 38 c198 59 346 90 911 190
479 85 697 134 798 182 68 33 92 58 92 98 0 79 -151 141 -605 249 -205 49
-275 71 -380 121 -166 78 -226 170 -176 268 116 228 617 346 1816 428 418 28
435 31 233 33 -98 0 -178 5 -178 9 0 5 19 8 43 6 23 -1 125 -3 227 -3 308 -2
189 -24 -310 -56 -564 -36 -924 -78 -1232 -141 -297 -61 -443 -118 -532 -207
-106 -106 -98 -195 25 -280 90 -61 217 -105 531 -184 311 -77 420 -113 493
-163 61 -42 72 -85 34 -134 -57 -73 -220 -118 -794 -221 -684 -123 -844 -157
-1045 -221 -79 -24 -82 -25 -96 -7 -57 75 -194 289 -249 389 -145 268 -252
595 -300 919 -18 123 -33 303 -26 310 8 8 3170 5 3174 -2z m2457 -3 c25 -4
-201 -7 -502 -8 l-548 0 -42 -37 c-139 -119 -461 -216 -1028 -310 -377 -62
-673 -116 -683 -125 -5 -4 90 -26 210 -49 798 -154 1022 -213 1253 -332 246
-126 377 -279 388 -451 12 -195 -108 -353 -483 -638 -341 -260 -422 -365 -394
-516 6 -32 14 -64 18 -71 4 -9 41 3 126 41 158 69 251 120 420 231 179 117
316 227 455 367 388 391 618 800 756 1343 18 72 33 121 33 110 1 -33 -55 -241
-102 -380 -108 -317 -247 -570 -463 -840 -105 -131 -316 -344 -434 -439 -199
-159 -515 -347 -713 -425 -43 -17 -79 -31 -82 -31 -10 0 -27 90 -28 146 -1 88
28 141 137 250 81 80 189 169 368 301 163 121 276 242 342 368 29 56 31 67 31
160 0 94 -2 104 -33 163 -41 78 -83 126 -175 196 -230 175 -508 263 -1317 416
-146 28 -290 56 -320 63 l-55 14 40 11 c59 17 326 66 607 112 470 76 757 143
943 221 77 32 177 93 207 126 16 17 48 18 520 19 277 0 523 -2 548 -6z m-1660
-14 c0 -2 -8 -10 -17 -17 -16 -13 -17 -12 -4 4 13 16 21 21 21 13z m287 -12
c-3 -3 -12 -4 -19 -1 -8 3 -5 6 6 6 11 1 17 -2 13 -5z m40 0 c-3 -3 -12 -4
-19 -1 -8 3 -5 6 6 6 11 1 17 -2 13 -5z m1349 -222 c-9 -64 -20 -130 -26 -147
-11 -34 -12 -42 15 155 8 58 16 132 17 165 l2 60 3 -58 c2 -31 -3 -110 -11
-175z m-2119 92 c-3 -3 -12 -4 -19 -1 -8 3 -5 6 6 6 11 1 17 -2 13 -5z m250
-10 c-3 -3 -12 -4 -19 -1 -8 3 -5 6 6 6 11 1 17 -2 13 -5z m-60 -10 c-3 -3
-12 -4 -19 -1 -8 3 -5 6 6 6 11 1 17 -2 13 -5z m-504 -11 c-7 -2 -21 -2 -30 0
-10 3 -4 5 12 5 17 0 24 -2 18 -5z m444 1 c-3 -3 -12 -4 -19 -1 -8 3 -5 6 6 6
11 1 17 -2 13 -5z m-60 -10 c-3 -3 -12 -4 -19 -1 -8 3 -5 6 6 6 11 1 17 -2 13
-5z m-854 -21 c-7 -2 -19 -2 -25 0 -7 3 -2 5 12 5 14 0 19 -2 13 -5z m-120
-10 c-7 -2 -19 -2 -25 0 -7 3 -2 5 12 5 14 0 19 -2 13 -5z m-96 -9 c-3 -3 -12
-4 -19 -1 -8 3 -5 6 6 6 11 1 17 -2 13 -5z m736 -11 c-7 -2 -19 -2 -25 0 -7 3
-2 5 12 5 14 0 19 -2 13 -5z m-906 -9 c-3 -3 -12 -4 -19 -1 -8 3 -5 6 6 6 11
1 17 -2 13 -5z m830 0 c-3 -3 -12 -4 -19 -1 -8 3 -5 6 6 6 11 1 17 -2 13 -5z
m-74 -11 c-7 -2 -19 -2 -25 0 -7 3 -2 5 12 5 14 0 19 -2 13 -5z m-916 -9 c-3
-3 -12 -4 -19 -1 -8 3 -5 6 6 6 11 1 17 -2 13 -5z m840 0 c-3 -3 -12 -4 -19
-1 -8 3 -5 6 6 6 11 1 17 -2 13 -5z m-900 -10 c-3 -3 -12 -4 -19 -1 -8 3 -5 6
6 6 11 1 17 -2 13 -5z m840 0 c-3 -3 -12 -4 -19 -1 -8 3 -5 6 6 6 11 1 17 -2
13 -5z m-130 -20 c-3 -3 -12 -4 -19 -1 -8 3 -5 6 6 6 11 1 17 -2 13 -5z m-130
-20 c-3 -3 -12 -4 -19 -1 -8 3 -5 6 6 6 11 1 17 -2 13 -5z m-120 -20 c-3 -3
-12 -4 -19 -1 -8 3 -5 6 6 6 11 1 17 -2 13 -5z m-827 -39 c0 -2 -10 -9 -22
-15 -22 -11 -22 -10 -4 4 21 17 26 19 26 11z m-60 -39 c0 -2 -8 -10 -17 -17
-16 -13 -17 -12 -4 4 13 16 21 21 21 13z m-9 -163 c13 -16 12 -17 -3 -4 -10 7
-18 15 -18 17 0 8 8 3 21 -13z m216 -99 c-3 -3 -12 -4 -19 -1 -8 3 -5 6 6 6
11 1 17 -2 13 -5z m40 -10 c-3 -3 -12 -4 -19 -1 -8 3 -5 6 6 6 11 1 17 -2 13
-5z m130 -30 c-3 -3 -12 -4 -19 -1 -8 3 -5 6 6 6 11 1 17 -2 13 -5z m874 -281
c13 -16 12 -17 -3 -4 -10 7 -18 15 -18 17 0 8 8 3 21 -13z m1270 -90 c13 -16
12 -17 -3 -4 -10 7 -18 15 -18 17 0 8 8 3 21 -13z m60 -60 c13 -16 12 -17 -3
-4 -10 7 -18 15 -18 17 0 8 8 3 21 -13z m-474 -45 c-3 -8 -6 -5 -6 6 -1 11 2
17 5 13 3 -3 4 -12 1 -19z m-817 -22 c0 -2 -8 -10 -17 -17 -16 -13 -17 -12 -4
4 13 16 21 21 21 13z m750 -129 c0 -2 -19 -21 -42 -42 l-43 -40 40 43 c36 39
45 47 45 39z m-90 -81 c0 -2 -8 -10 -17 -17 -16 -13 -17 -12 -4 4 13 16 21 21
21 13z m610 -50 c0 -2 -8 -10 -17 -17 -16 -13 -17 -12 -4 4 13 16 21 21 21 13z
m-70 -81 c-24 -25 -46 -45 -49 -45 -3 0 15 20 39 45 24 25 46 45 49 45 3 0
-15 -20 -39 -45z m-705 25 c-3 -5 -12 -10 -18 -10 -7 0 -6 4 3 10 19 12 23 12
15 0z m625 -94 c0 -2 -8 -10 -17 -17 -16 -13 -17 -12 -4 4 13 16 21 21 21 13z
m-3240 -313 c0 -8 -9 0 -50 45 l-45 47 48 -45 c26 -24 47 -45 47 -47z m2020
-3 c-8 -5 -19 -10 -25 -10 -5 0 -3 5 5 10 8 5 20 10 25 10 6 0 3 -5 -5 -10z
m-1924 -82 l29 -33 -32 29 c-31 28 -38 36 -30 36 2 0 16 -15 33 -32z m1094
-32 c0 -2 -8 -10 -17 -17 -16 -13 -17 -12 -4 4 13 16 21 21 21 13z m-1019 -33
c13 -16 12 -17 -3 -4 -17 13 -22 21 -14 21 2 0 10 -8 17 -17z m2319 4 c0 -2
-10 -12 -22 -23 l-23 -19 19 23 c18 21 26 27 26 19z m-1350 -10 c0 -1 -24 -25
-52 -52 l-53 -50 50 53 c46 48 55 57 55 49z m600 -11 c0 -2 -8 -10 -17 -17
-16 -13 -17 -12 -4 4 13 16 21 21 21 13z m-40 -30 c0 -2 -8 -10 -17 -17 -16
-13 -17 -12 -4 4 13 16 21 21 21 13z m730 1 c0 -1 -26 -27 -57 -57 l-58 -55
55 58 c50 53 60 62 60 54z m-790 -50 c0 -2 -10 -12 -22 -23 l-23 -19 19 23
c18 21 26 27 26 19z m-60 -71 c0 -2 -8 -10 -17 -17 -16 -13 -17 -12 -4 4 13
16 21 21 21 13z m-60 -86 c-6 -11 -13 -20 -16 -20 -2 0 0 9 6 20 6 11 13 20
16 20 2 0 0 -9 -6 -20z m-573 -102 c-3 -8 -6 -5 -6 6 -1 11 2 17 5 13 3 -3 4
-12 1 -19z m520 -60 c-3 -8 -6 -5 -6 6 -1 11 2 17 5 13 3 -3 4 -12 1 -19z m0
-95 c-3 -10 -5 -4 -5 12 0 17 2 24 5 18 2 -7 2 -21 0 -30z m160 -99 c-3 -3
-12 -4 -19 -1 -8 3 -5 6 6 6 11 1 17 -2 13 -5z m600 -10 c-3 -3 -12 -4 -19 -1
-8 3 -5 6 6 6 11 1 17 -2 13 -5z m-134 -11 c-13 -2 -33 -2 -45 0 -13 2 -3 4
22 4 25 0 35 -2 23 -4z"/>
<path d="M6258 7197 c-55 -25 -228 -173 -228 -194 0 -34 279 -263 495 -407
253 -169 473 -282 643 -332 76 -22 102 -24 276 -24 l191 0 -80 44 c-157 84
-316 188 -515 336 -164 122 -294 234 -466 401 -136 132 -221 199 -253 199 -9
0 -37 -10 -63 -23z"/>
<path d="M1395 2750 c-143 -16 -229 -102 -230 -230 0 -115 49 -172 210 -245
44 -20 95 -44 114 -53 37 -17 71 -65 71 -100 0 -39 -29 -83 -65 -98 -50 -20
-128 -18 -175 6 -39 20 -90 90 -90 123 0 13 -9 17 -35 17 l-35 0 0 -104 0
-104 84 -27 c74 -24 96 -27 178 -23 186 9 298 101 298 248 0 126 -71 195 -282
279 -62 25 -118 78 -118 112 0 63 60 109 142 109 64 0 108 -28 141 -88 22 -41
34 -52 53 -52 24 0 24 1 24 96 l0 95 -34 14 c-19 8 -61 17 -93 20 -32 4 -67 7
-78 9 -11 2 -47 0 -80 -4z"/>
<path d="M4003 2750 c-104 -19 -164 -49 -234 -119 -84 -84 -109 -146 -117
-282 -4 -80 -1 -109 16 -166 36 -117 113 -198 232 -244 115 -44 309 -33 437
26 l52 24 3 122 3 122 32 16 c25 12 33 23 33 44 l0 27 -160 0 -160 0 0 -27 c0
-21 8 -32 33 -44 l32 -16 3 -100 3 -101 -32 -11 c-97 -34 -224 4 -276 80 -49
74 -56 99 -61 219 -3 101 -1 122 18 173 28 75 59 110 125 143 48 23 64 26 128
22 62 -3 80 -8 111 -32 20 -15 47 -48 59 -72 19 -39 25 -44 55 -44 l35 0 -7
97 c-4 55 -13 101 -19 105 -48 29 -258 53 -344 38z"/>
<path d="M8385 2750 c-211 -30 -305 -231 -178 -380 27 -31 61 -54 123 -83 47
-21 105 -48 128 -59 144 -68 86 -228 -77 -216 -75 5 -116 35 -148 105 -21 46
-28 53 -54 53 l-29 0 0 -104 0 -103 43 -17 c149 -57 319 -43 427 34 113 80
110 278 -4 362 -22 16 -91 54 -151 82 -67 32 -120 64 -133 81 -60 76 13 164
128 153 66 -7 98 -30 122 -89 17 -39 25 -49 44 -49 24 0 24 2 24 100 l0 99
-37 11 c-34 9 -55 13 -153 24 -14 1 -47 0 -75 -4z"/>
<path d="M1830 2715 c0 -16 6 -25 15 -25 9 0 27 -11 40 -25 l25 -24 0 -258 c0
-250 1 -259 24 -308 30 -63 65 -97 141 -132 55 -25 70 -28 170 -28 133 1 193
22 254 91 62 71 71 120 71 400 0 238 0 241 23 262 13 12 31 22 40 22 11 0 17
8 17 25 l0 25 -140 0 -140 0 0 -25 c0 -16 6 -25 15 -25 9 0 27 -11 40 -25 l25
-24 0 -234 c0 -251 -7 -295 -53 -346 -45 -49 -141 -66 -210 -37 -44 18 -94 78
-104 123 -4 21 -8 140 -8 265 0 226 0 226 24 252 14 14 33 26 43 26 13 0 18 7
18 25 l0 25 -165 0 -165 0 0 -25z"/>
<path d="M2730 2715 c0 -16 6 -25 15 -25 8 0 24 -9 35 -20 19 -19 20 -33 20
-329 l0 -310 -26 -20 c-15 -12 -33 -21 -41 -21 -10 0 -13 -9 -11 -27 l3 -28
128 -1 c70 0 130 3 133 8 9 14 -6 48 -21 48 -7 0 -23 12 -34 26 -20 25 -21 39
-21 267 l0 240 22 -29 c21 -27 102 -123 367 -431 109 -128 115 -133 152 -133
l39 0 0 355 0 356 26 24 c15 14 33 25 40 25 8 0 14 11 14 25 l0 25 -135 0
-135 0 0 -25 c0 -15 6 -25 14 -25 8 0 27 -10 41 -22 l26 -23 -3 -208 -3 -208
-219 255 -219 256 -104 0 -103 0 0 -25z"/>
<path d="M4730 2480 c-183 -455 -182 -453 -217 -475 -23 -14 -32 -28 -33 -47
l0 -27 135 0 135 -1 0 25 c0 17 -9 29 -29 40 -41 21 -45 43 -19 116 l23 64
142 3 142 3 22 -48 c11 -27 22 -64 23 -83 1 -30 -3 -37 -31 -49 -26 -12 -33
-21 -33 -43 l0 -29 168 3 c161 3 167 4 170 24 2 16 -7 27 -32 42 -48 28 -62
54 -155 281 -44 108 -105 255 -135 326 l-55 130 -58 3 -58 2 -105 -260z m154
38 c6 -27 51 -152 81 -220 6 -17 -2 -18 -95 -18 -78 0 -101 3 -97 13 2 6 24
67 47 135 23 67 46 122 50 122 4 0 11 -15 14 -32z"/>
<path d="M5410 2725 c0 -15 6 -21 53 -56 l27 -20 0 -300 c0 -193 -4 -307 -11
-320 -5 -11 -21 -24 -35 -29 -18 -7 -24 -17 -24 -40 l0 -30 160 0 160 0 0 29
c0 23 -6 31 -31 41 -17 7 -35 24 -40 37 -5 13 -9 155 -9 314 l0 290 25 24 c13
14 31 25 40 25 9 0 15 9 15 25 l0 25 -165 0 c-138 0 -165 -2 -165 -15z"/>
<path d="M6180 2716 c0 -17 8 -27 29 -35 51 -22 51 -34 25 -346 -26 -306 -31
-329 -80 -341 -20 -5 -24 -12 -22 -33 l3 -26 130 0 130 0 3 26 c2 21 -3 29
-28 39 -18 7 -35 23 -39 34 -4 12 -4 82 0 156 4 74 8 187 8 250 1 117 8 129
30 50 12 -41 71 -189 181 -457 45 -110 65 -127 93 -80 8 12 70 157 138 321
l124 300 2 -70 c1 -38 7 -155 13 -261 12 -207 9 -226 -36 -243 -18 -7 -24 -17
-24 -40 l0 -30 155 0 155 0 0 28 c0 20 -7 30 -29 40 -19 9 -33 25 -40 45 -16
55 -56 564 -47 602 4 15 18 28 41 36 26 10 35 19 35 36 0 23 -1 23 -127 23
l-128 0 -82 -193 c-45 -105 -94 -222 -109 -259 -15 -38 -30 -66 -32 -63 -5 5
-108 248 -175 412 l-42 103 -127 0 -128 0 0 -24z"/>
<path d="M7260 2715 c0 -14 6 -25 13 -25 7 0 23 -9 35 -20 21 -20 22 -27 22
-263 0 -261 8 -318 51 -381 27 -40 87 -82 144 -99 22 -6 85 -12 140 -12 86 0
108 4 155 26 67 31 116 79 144 139 19 41 21 69 26 308 5 262 5 264 29 283 13
10 29 19 37 19 8 0 14 10 14 25 l0 25 -134 0 c-126 0 -134 -1 -139 -21 -4 -15
1 -22 17 -29 56 -21 56 -21 56 -294 0 -241 -1 -254 -22 -296 -59 -115 -241
-121 -315 -9 l-28 42 -3 236 c-2 130 -1 250 3 267 4 24 14 36 40 48 22 11 35
24 35 36 0 19 -8 20 -160 20 l-160 0 0 -25z"/>
<path d="M8820 2716 c0 -17 9 -27 30 -36 17 -7 33 -22 35 -34 3 -11 4 -156 3
-321 l-3 -300 -32 -20 c-23 -14 -32 -28 -33 -47 l0 -28 150 0 150 0 0 28 c0
21 -7 32 -25 40 -14 7 -30 23 -35 38 -6 14 -10 150 -10 315 l0 290 25 24 c13
14 31 25 40 25 9 0 15 9 15 25 l0 25 -155 0 -155 0 0 -24z"/>
<path d="M4428 1557 c-128 -37 -201 -160 -178 -302 17 -107 97 -184 213 -205
141 -27 290 51 326 169 15 52 14 155 -3 195 -20 49 -69 99 -122 125 -58 29
-166 37 -236 18z m166 -101 c51 -21 80 -69 84 -141 3 -50 0 -66 -20 -95 -31
-46 -84 -80 -122 -80 -122 1 -202 139 -144 250 37 72 121 100 202 66z"/>
<path d="M3510 1321 c0 -132 -3 -246 -6 -255 -5 -14 4 -16 60 -16 l66 0 0 100
0 100 110 0 110 0 0 -100 0 -100 60 0 59 0 3 255 3 255 -62 0 -63 0 0 -100 0
-100 -110 0 -110 0 0 100 0 100 -60 0 -60 0 0 -239z"/>
<path d="M5020 1510 l0 -50 80 0 80 0 0 -205 0 -205 65 0 65 0 0 206 0 207 80
-5 80 -5 0 54 0 53 -225 0 -225 0 0 -50z"/>
<path d="M5730 1321 c0 -132 -3 -246 -6 -255 -5 -14 15 -16 190 -16 l196 0 0
50 0 50 -130 0 -130 0 0 60 0 60 115 0 115 0 0 45 0 45 -115 0 -115 0 0 56 0
55 130 -3 130 -3 0 48 0 47 -190 0 -190 0 0 -239z"/>
<path d="M6420 1305 l0 -255 190 0 190 0 0 55 0 55 -125 0 -125 0 0 200 0 200
-65 0 -65 0 0 -255z"/>
</g>
</svg>
